<?xml version="1.0" encoding="UTF-8" standalone="no"?>
<!-- Creator: CorelDRAW X6 -->

<svg
   xmlns:dc="http://purl.org/dc/elements/1.1/"
   xmlns:cc="http://creativecommons.org/ns#"
   xmlns:rdf="http://www.w3.org/1999/02/22-rdf-syntax-ns#"
   xmlns:svg="http://www.w3.org/2000/svg"
   xmlns="http://www.w3.org/2000/svg"
   xmlns:sodipodi="http://sodipodi.sourceforge.net/DTD/sodipodi-0.dtd"
   xmlns:inkscape="http://www.inkscape.org/namespaces/inkscape"
   xml:space="preserve"
   width="1010px"
   height="827px"
   version="1.1"
   style="shape-rendering:geometricPrecision; text-rendering:geometricPrecision; image-rendering:optimizeQuality; fill-rule:evenodd; clip-rule:evenodd"
   viewBox="0 0 291 238"
   id="svg2"
   inkscape:version="0.91 r13725"
   sodipodi:docname="favicon.svg"><metadata
     id="metadata23"><rdf:RDF><cc:Work
         rdf:about=""><dc:format>image/svg+xml</dc:format><dc:type
           rdf:resource="http://purl.org/dc/dcmitype/StillImage" /></cc:Work></rdf:RDF></metadata><sodipodi:namedview
     pagecolor="#ffffff"
     bordercolor="#666666"
     borderopacity="1"
     objecttolerance="10"
     gridtolerance="10"
     guidetolerance="10"
     inkscape:pageopacity="0"
     inkscape:pageshadow="2"
     inkscape:window-width="2495"
     inkscape:window-height="1416"
     id="namedview21"
     showgrid="false"
     inkscape:zoom="1.1414752"
     inkscape:cx="382.80309"
     inkscape:cy="536.0296"
     inkscape:window-x="65"
     inkscape:window-y="24"
     inkscape:window-maximized="1"
     inkscape:current-layer="_974940128" /><defs
     id="defs4"><style
       type="text/css"
       id="style6"><![CDATA[
    .fil0 {fill:none}
    .fil2 {fill:#F07F2F}
    .fil1 {fill:#F07F2F;fill-rule:nonzero}
   ]]></style></defs><g
     id="Ebene_x0020_1"><metadata
       id="CorelCorpID_0Corel-Layer" /><rect
       class="fil0"
       width="291"
       height="238"
       id="rect10" /><g
       id="_974940128"><path
         class="fil1"
         d="M135 65c2,-12 -2,-26 -11,-28 -10,-3 -20,3 -29,20 -11,22 -22,35 -19,62 2,11 7,16 12,19l0 86c0,8 6,14 13,14 8,0 14,-6 14,-14l0 -96c0,-15 3,-29 10,-42 -7,-7 -12,-16 -16,-24 -5,-11 11,-24 20,-9 2,4 3,8 6,12z"
         id="path13"
         style="fill:#2f7af0;fill-opacity:1" /><path
         class="fil1"
         d="M169 72c-6,1 -17,7 -22,6 -10,-4 -14,-13 -19,-24 -8,-13 -21,-3 -17,6 6,14 13,26 26,32 10,4 28,0 37,-4 10,-4 6,-17 -5,-16z"
         id="path15"
         style="fill:#2f7af0;fill-opacity:1" /><path
         class="fil2"
         d="M212 40c-14,-13 -41,11 -31,27l-15 15 3 3 15 -15c16,11 41,-16 28,-30zm-4 4c-10,-12 -33,10 -22,22 11,11 33,-11 22,-22z"
         id="path17"
         style="fill:#2f7af0;fill-opacity:1" /><circle
         class="fil2"
         cx="156"
         cy="25"
         r="25"
         id="circle19"
         style="fill:#2f7af0;fill-opacity:1" /></g></g></svg>